<?xml version="1.0" encoding="utf-8"?>
<svg viewBox="0 0 581.038 213.666" xmlns="http://www.w3.org/2000/svg">
  <g class="signage-logo" opacity="1" transform="matrix(1.021512, 0, 0, 1, 0.000001, -0.000001)" style="">
    <defs id="SvgjsDefs1002">
      <linearGradient id="SvgjsLinearGradientEuNu-NPfqa" gradientUnits="userSpaceOnUse" x1="12.50000000000001" y1="87.5" x2="87.50000000000001" y2="12.499999999999993">
        <stop id="SvgjsStop1010" stop-color="#fd8292" offset="0.05"/>
        <stop id="SvgjsStop1011" stop-color="#fb0425" offset="0.95"/>
      </linearGradient>
    </defs>
    <g id="SvgjsG1008" transform="scale(1.2311688311688311)" opacity="1">
      <g id="SvgjsG1012" class="1Q8hKksHz" transform="translate(-32.540062583295914, -21.693375055530602) scale(2.1693375055530617)" light-content="false" non-strokable="false" fill="url(#SvgjsLinearGradientEuNu-NPfqa)">
        <path d="M21.667 73.809V33.867l28.33-16.188 28.337 16.188V66.13L49.997 82.321 35 73.75V41.604l14.997-8.57L65 41.604v16.788l-15.003 8.571-1.663-.95v-16.67l8.382-4.792-6.719-3.838-8.33 4.763V69.88l8.33 4.762 21.67-12.383V37.737l-21.67-12.379-21.663 12.379v39.88L49.997 90 85 70V30L49.997 10 15 30v40z"/>
      </g>
      <g id="SvgjsG1013" class="text" transform="translate(302.368364980778, 77.6156740995575) scale(1)" light-content="false" fill="#2b2b2b">
        <path d="M-121.22 -2.12C-116.15 -0.04 -110.88 0.99 -105.41 0.99C-101.97 0.99 -98.91 0.54 -96.22 -0.36C-93.53 -1.27 -91.36 -2.77 -89.71 -4.86C-88.05 -6.95 -87.23 -9.66 -87.23 -12.96C-87.23 -16.49 -88.29 -19.49 -90.4 -21.96C-92.52 -24.42 -95.82 -26.67 -100.32 -28.7L-101.64 -29.3C-105.44 -30.97 -108.07 -32.33 -109.55 -33.36C-111.02 -34.4 -111.76 -35.69 -111.76 -37.23C-111.76 -38.95 -110.84 -40.26 -108.98 -41.17C-107.13 -42.07 -104.91 -42.52 -102.31 -42.52C-100.63 -42.52 -98.89 -42.32 -97.08 -41.93L-93.84 -33.07L-90.14 -33.07L-90.14 -45.23C-94.41 -46.6 -99.22 -47.28 -104.55 -47.28C-109.32 -47.28 -113.2 -46.19 -116.19 -44.01C-119.19 -41.83 -120.69 -38.93 -120.69 -35.31C-120.69 -31.92 -119.74 -29.06 -117.85 -26.75C-115.95 -24.44 -112.82 -22.22 -108.46 -20.1L-106.08 -18.98C-104.14 -18.05 -102.78 -17.39 -102.01 -17C-101.24 -16.6 -100.65 -16.28 -100.26 -16.04C-99.86 -15.79 -99.4 -15.49 -98.87 -15.11C-98.34 -14.74 -97.94 -14.38 -97.68 -14.05C-97.41 -13.72 -97.15 -13.36 -96.88 -12.96C-96.62 -12.57 -96.43 -12.15 -96.32 -11.71C-96.21 -11.26 -96.16 -10.8 -96.16 -10.32C-96.16 -8.24 -97.25 -6.68 -99.43 -5.62C-101.61 -4.56 -104.2 -4.03 -107.2 -4.03C-109.98 -4.03 -112.29 -4.36 -114.14 -5.03L-117.52 -14.28L-121.22 -14.28Z M-75.79 0L-52.84 0L-52.84 -3.7L-58.92 -5.16L-58.92 -41.13L-52.84 -42.59L-52.84 -46.29L-75.79 -46.29L-75.79 -42.59L-69.7 -41.13L-69.7 -5.16L-75.79 -3.7Z M-41.86 0L-22.02 0C-14.48 0 -8.46 -2.02 -3.97 -6.05C0.53 -10.09 2.78 -15.78 2.78 -23.15C2.78 -30.07 0.65 -35.66 -3.6 -39.91C-7.86 -44.16 -14 -46.29 -22.02 -46.29L-41.86 -46.29L-41.86 -42.59L-35.78 -41.13L-35.78 -5.16L-41.86 -3.7ZM-25 -5.09L-25 -41.2L-23.01 -41.2C-18.21 -41.2 -14.54 -39.65 -12 -36.54C-9.47 -33.43 -8.2 -28.97 -8.2 -23.15C-8.2 -17.37 -9.47 -12.92 -12 -9.79C-14.54 -6.66 -18.21 -5.09 -23.01 -5.09Z M15.01 -23.15C15.01 -15.83 17.01 -9.97 21 -5.59C24.99 -1.2 30.6 0.99 37.83 0.99C45.06 0.99 50.67 -1.22 54.66 -5.65C58.65 -10.09 60.64 -15.92 60.64 -23.15C60.64 -30.42 58.65 -36.26 54.66 -40.67C50.67 -45.08 45.06 -47.28 37.83 -47.28C30.51 -47.28 24.88 -45.05 20.93 -40.57C16.98 -36.1 15.01 -30.29 15.01 -23.15ZM37.83 -3.57C33.95 -3.57 31.03 -5.28 29.06 -8.7C27.1 -12.11 26.12 -16.93 26.12 -23.15C26.12 -29.36 27.11 -34.18 29.1 -37.6C31.08 -41.01 33.99 -42.72 37.83 -42.72C41.62 -42.72 44.52 -41.01 46.52 -37.6C48.53 -34.18 49.53 -29.36 49.53 -23.15C49.53 -16.93 48.54 -12.11 46.56 -8.7C44.57 -5.28 41.66 -3.57 37.83 -3.57Z M71.55 0L89.01 0L89.01 -3.7L82.93 -5.16L82.93 -30.02L110.37 0L116.79 0L116.79 -41.13L122.87 -42.59L122.87 -46.29L105.22 -46.29L105.22 -42.59L111.3 -41.13L111.3 -15.21L82.93 -46.29L71.55 -46.29L71.55 -42.59L77.64 -41.13L77.64 -5.16L71.55 -3.7Z"/>
      </g>
      <g id="SvgjsG1014" class="text" transform="translate(321.0312348130303, 128.70330212606774) scale(1)" light-content="false" fill="#fb0425">
        <path d="M-134.71 -16.68C-134.71 -17.22 -134.89 -17.68 -135.26 -18.03C-135.62 -18.39 -136.07 -18.57 -136.6 -18.57C-137.13 -18.57 -137.58 -18.39 -137.94 -18.02C-138.31 -17.65 -138.49 -17.21 -138.49 -16.68C-138.49 -16.15 -138.31 -15.7 -137.94 -15.34C-137.58 -14.97 -137.13 -14.79 -136.6 -14.79C-136.07 -14.79 -135.62 -14.97 -135.26 -15.34C-134.89 -15.7 -134.71 -16.15 -134.71 -16.68ZM-140.36 0L-132.97 0L-132.97 -1.1L-135.14 -1.61L-135.14 -12.79L-136.27 -12.79L-140.36 -11.82L-140.36 -10.72L-138.18 -10.72L-138.18 -1.61L-140.36 -1.1Z M-126.8 0L-119.89 0L-119.89 -1.1L-121.55 -1.61L-121.55 -10.13C-120.46 -10.91 -119.41 -11.31 -118.41 -11.31C-116.92 -11.31 -116.18 -10.44 -116.18 -8.7L-116.18 -1.61L-117.84 -1.1L-117.84 0L-110.96 0L-110.96 -1.1L-113.14 -1.61L-113.14 -9.16C-113.14 -10.33 -113.52 -11.3 -114.29 -12.05C-115.06 -12.8 -116.1 -13.17 -117.43 -13.17C-118.88 -13.17 -120.26 -12.64 -121.55 -11.56L-121.55 -12.79L-122.7 -12.79L-126.8 -11.82L-126.8 -10.72L-124.62 -10.72L-124.62 -1.61L-126.8 -1.1Z M-105.05 -11.26L-103.69 -11.26L-103.69 -3.56C-103.69 -2.11 -103.36 -1.09 -102.68 -0.5C-102.01 0.09 -101.06 0.38 -99.83 0.38C-98.7 0.38 -97.61 0.11 -96.56 -0.43L-96.99 -1.61C-97.71 -1.3 -98.32 -1.15 -98.83 -1.15C-100.04 -1.15 -100.65 -1.91 -100.65 -3.43L-100.65 -11.26L-96.97 -11.26L-96.97 -12.79L-100.65 -12.64L-100.65 -15.12L-101.42 -15.12L-105.05 -12.02Z M-90.67 -6.55C-90.67 -4.62 -90.08 -2.98 -88.89 -1.64C-87.7 -0.29 -86.08 0.38 -84.02 0.38C-82.58 0.38 -81.08 0.03 -79.49 -0.67L-79.92 -1.87C-80.98 -1.48 -81.96 -1.28 -82.87 -1.28C-84.28 -1.28 -85.4 -1.77 -86.22 -2.75C-87.04 -3.73 -87.5 -4.92 -87.62 -6.32L-78.98 -6.32C-78.98 -7.26 -79.08 -8.13 -79.28 -8.93C-79.49 -9.73 -79.81 -10.45 -80.24 -11.1C-80.68 -11.75 -81.27 -12.26 -82.01 -12.62C-82.75 -12.99 -83.62 -13.17 -84.61 -13.17C-86.5 -13.17 -87.98 -12.54 -89.06 -11.27C-90.13 -10 -90.67 -8.42 -90.67 -6.55ZM-87.62 -7.57C-87.59 -8.77 -87.3 -9.76 -86.77 -10.56C-86.23 -11.37 -85.53 -11.77 -84.68 -11.77C-83.9 -11.77 -83.29 -11.39 -82.87 -10.64C-82.44 -9.89 -82.2 -9 -82.15 -7.98Z M-72.78 0L-65.36 0L-65.36 -1.1L-67.54 -1.61L-67.54 -20.46L-68.69 -20.46L-72.78 -19.49L-72.78 -18.39L-70.61 -18.39L-70.61 -1.61L-72.78 -1.1Z M-59.17 -6.55C-59.17 -4.62 -58.58 -2.98 -57.39 -1.64C-56.21 -0.29 -54.58 0.38 -52.52 0.38C-51.09 0.38 -49.58 0.03 -47.99 -0.67L-48.43 -1.87C-49.48 -1.48 -50.46 -1.28 -51.37 -1.28C-52.78 -1.28 -53.9 -1.77 -54.72 -2.75C-55.54 -3.73 -56.01 -4.92 -56.12 -6.32L-47.48 -6.32C-47.48 -7.26 -47.58 -8.13 -47.79 -8.93C-47.99 -9.73 -48.31 -10.45 -48.74 -11.1C-49.18 -11.75 -49.77 -12.26 -50.51 -12.62C-51.25 -12.99 -52.12 -13.17 -53.11 -13.17C-55 -13.17 -56.48 -12.54 -57.56 -11.27C-58.63 -10 -59.17 -8.42 -59.17 -6.55ZM-56.12 -7.57C-56.09 -8.77 -55.8 -9.76 -55.27 -10.56C-54.73 -11.37 -54.04 -11.77 -53.18 -11.77C-52.4 -11.77 -51.79 -11.39 -51.37 -10.64C-50.94 -9.89 -50.7 -9 -50.65 -7.98Z M-41.28 0L-34.38 0L-34.38 -1.1L-36.04 -1.61L-36.04 -20.46L-37.19 -20.46L-41.28 -19.49L-41.28 -18.39L-39.11 -18.39L-39.11 -1.61L-41.28 -1.1ZM-35.6 -6.16L-31.1 0L-26.34 0L-26.34 -1.1L-28.44 -1.59L-32.66 -7.29L-29.11 -11.18L-26.86 -11.69L-26.86 -12.79L-32.64 -12.79L-32.64 -11.69L-30.92 -11.26Z M-20.46 -11.26L-19.1 -11.26L-19.1 -3.56C-19.1 -2.11 -18.76 -1.09 -18.09 -0.5C-17.42 0.09 -16.47 0.38 -15.24 0.38C-14.11 0.38 -13.02 0.11 -11.96 -0.43L-12.4 -1.61C-13.11 -1.3 -13.73 -1.15 -14.24 -1.15C-15.45 -1.15 -16.06 -1.91 -16.06 -3.43L-16.06 -11.26L-12.37 -11.26L-12.37 -12.79L-16.06 -12.64L-16.06 -15.12L-16.82 -15.12L-20.46 -12.02Z M-6.71 -11.69L-4.54 -11.18L-4.54 -3.63C-4.54 -2.42 -4.19 -1.45 -3.48 -0.72C-2.77 0.02 -1.74 0.38 -0.37 0.38C1.18 0.38 2.63 -0.18 3.98 -1.3C3.99 -1.2 4.04 -1.08 4.11 -0.93C4.17 -0.79 4.28 -0.61 4.44 -0.38C4.59 -0.16 4.82 0.02 5.12 0.17C5.41 0.31 5.76 0.38 6.15 0.38C6.65 0.38 7.15 0.27 7.65 0.05C8.15 -0.17 8.61 -0.46 9.02 -0.82L9.02 -1.66L7.02 -1.66L7.02 -12.79L2.31 -12.79L2.31 -11.69L3.98 -11.18L3.98 -2.71C2.95 -1.84 1.86 -1.41 0.7 -1.41C-0.76 -1.41 -1.5 -2.26 -1.5 -3.96L-1.5 -12.79L-6.71 -12.79Z M15.11 -3.17C15.11 -2 15.52 -1.11 16.33 -0.51C17.14 0.09 18.1 0.38 19.23 0.38C20.66 0.38 21.95 -0.05 23.09 -0.92C23.57 -0.05 24.31 0.38 25.32 0.38C25.78 0.38 26.25 0.28 26.72 0.06C27.2 -0.15 27.64 -0.44 28.03 -0.82L28.03 -1.66L26.03 -1.66L26.03 -8.77C26.03 -11.71 24.28 -13.17 20.79 -13.17C19.95 -13.17 19.11 -13.07 18.26 -12.85C17.4 -12.64 16.62 -12.34 15.9 -11.95C15.92 -11.42 16.07 -10.92 16.35 -10.45C16.63 -9.98 16.98 -9.62 17.39 -9.36L20.38 -11.92C21.27 -11.92 21.92 -11.72 22.34 -11.32C22.75 -10.92 22.96 -9.98 22.96 -8.49L22.96 -7.6C17.73 -7.6 15.11 -6.12 15.11 -3.17ZM18.33 -3.27C18.33 -4.18 18.72 -4.91 19.5 -5.46C20.27 -6.02 21.43 -6.29 22.96 -6.29L22.96 -2.28C22.3 -1.7 21.5 -1.41 20.56 -1.41C19.91 -1.41 19.38 -1.56 18.96 -1.87C18.54 -2.17 18.33 -2.64 18.33 -3.27Z M33.58 0L41 0L41 -1.1L38.83 -1.61L38.83 -20.46L37.68 -20.46L33.58 -19.49L33.58 -18.39L35.76 -18.39L35.76 -1.61L33.58 -1.1Z M57.77 -11.26L59.12 -11.26L59.12 -3.56C59.12 -2.11 59.46 -1.09 60.13 -0.5C60.81 0.09 61.76 0.38 62.99 0.38C64.11 0.38 65.2 0.11 66.26 -0.43L65.82 -1.61C65.11 -1.3 64.49 -1.15 63.98 -1.15C62.77 -1.15 62.17 -1.91 62.17 -3.43L62.17 -11.26L65.85 -11.26L65.85 -12.79L62.17 -12.64L62.17 -15.12L61.4 -15.12L57.77 -12.02Z M77.75 -16.68C77.75 -17.22 77.57 -17.68 77.2 -18.03C76.83 -18.39 76.39 -18.57 75.86 -18.57C75.33 -18.57 74.88 -18.39 74.51 -18.02C74.15 -17.65 73.96 -17.21 73.96 -16.68C73.96 -16.15 74.15 -15.7 74.51 -15.34C74.88 -14.97 75.33 -14.79 75.86 -14.79C76.39 -14.79 76.83 -14.97 77.2 -15.34C77.57 -15.7 77.75 -16.15 77.75 -16.68ZM72.1 0L79.49 0L79.49 -1.1L77.31 -1.61L77.31 -12.79L76.19 -12.79L72.1 -11.82L72.1 -10.72L74.27 -10.72L74.27 -1.61L72.1 -1.1Z M85.74 0L96.3 0L96.56 -4.25L95.56 -4.25L94.23 -1.41L89.44 -1.41L96.58 -11.54L96.58 -12.79L86.38 -12.79L86.09 -8.83L87.01 -8.83L88.24 -11.41L92.87 -11.41L85.74 -1.28Z M109.07 -16.68C109.07 -17.22 108.89 -17.68 108.52 -18.03C108.15 -18.39 107.71 -18.57 107.18 -18.57C106.65 -18.57 106.2 -18.39 105.83 -18.02C105.47 -17.65 105.28 -17.21 105.28 -16.68C105.28 -16.15 105.47 -15.7 105.83 -15.34C106.2 -14.97 106.65 -14.79 107.18 -14.79C107.71 -14.79 108.15 -14.97 108.52 -15.34C108.89 -15.7 109.07 -16.15 109.07 -16.68ZM103.42 0L110.81 0L110.81 -1.1L108.63 -1.61L108.63 -12.79L107.51 -12.79L103.42 -11.82L103.42 -10.72L105.59 -10.72L105.59 -1.61L103.42 -1.1Z M116.98 0L123.86 0L123.86 -1.1L122.2 -1.61L122.2 -10.23C123.27 -10.95 124.29 -11.31 125.24 -11.31C125.94 -11.31 126.48 -11.09 126.87 -10.67C127.25 -10.24 127.44 -9.63 127.44 -8.83L127.44 -1.61L125.78 -1.1L125.78 0L132.17 0L132.17 -1.1L130.51 -1.61L130.51 -9.16C130.51 -9.4 130.48 -9.72 130.41 -10.13C131.5 -10.91 132.55 -11.31 133.55 -11.31C134.25 -11.31 134.8 -11.09 135.18 -10.67C135.56 -10.24 135.75 -9.63 135.75 -8.83L135.75 -1.61L134.09 -1.1L134.09 0L140.97 0L140.97 -1.1L138.8 -1.61L138.8 -9.16C138.8 -10.33 138.42 -11.3 137.66 -12.05C136.9 -12.8 135.87 -13.17 134.55 -13.17C133 -13.17 131.47 -12.53 129.97 -11.23C129.24 -12.53 128 -13.17 126.24 -13.17C124.86 -13.17 123.51 -12.66 122.2 -11.64L122.2 -12.79L121.07 -12.79L116.98 -11.82L116.98 -10.72L119.15 -10.72L119.15 -1.61L116.98 -1.1Z"/>
      </g>
    </g>
  </g>
</svg>